<svg width="34" height="48" viewBox="0 0 34 48" fill="none" xmlns="http://www.w3.org/2000/svg">
<path d="M23.2362 41.01L18.4715 36.42L14.0323 32.16L19.9512 31.29L26.61 30.33L27.4682 28.62H27.409C26.7298 28.6203 26.0711 28.3837 25.5435 27.95C25.016 27.5163 24.6517 26.9118 24.5117 26.238C24.5088 24.387 26.8763 24.987 28.7408 21.867C28.9776 21.807 37.0865 -0.00299835 20.5135 -0.00299835C3.94054 -0.00299835 12.0495 21.807 12.0495 21.807C13.9139 24.807 16.3111 24.357 16.2815 26.157C16.2519 27.957 14.0915 28.557 12.0495 28.767C8.67567 29.157 5.71621 28.377 2.75675 34.047C0.981076 37.317 0.241211 47.997 0.241211 47.997H22.0228V47.487L23.2362 41.01ZM31.5227 48H33.18L32.3513 47.58L31.5227 48Z" fill="#022C40"/>
</svg>
